<svg width="26" height="40" viewBox="0 0 26 40" fill="none" xmlns="http://www.w3.org/2000/svg">
<g clip-path="url(#clip0)">
<path fill-rule="evenodd" clip-rule="evenodd" d="M5 6.22222L13 0L21 6.22222V16C21 16.9818 20.2041 17.7778 19.2222 17.7778H6.77778C5.79594 17.7778 5 16.9818 5 16V6.22222Z" stroke="black" stroke-width="2" stroke-linecap="round" stroke-linejoin="round"/>
<path d="M10.3333 17.7778V8.88892H15.6667V17.7778" stroke="black" stroke-width="2" stroke-linecap="round" stroke-linejoin="round"/>
<path d="M6.30859 38V30.9541H5.42969V34.001H1.5625V30.9541H0.683594V38H1.5625V34.792H5.42969V38H6.30859ZM9.64844 38.0879C11.0498 38.0879 11.9971 37.0771 11.9971 35.4609C11.9971 33.8398 11.0498 32.834 9.64844 32.834C8.24219 32.834 7.29492 33.8398 7.29492 35.4609C7.29492 37.0771 8.24219 38.0879 9.64844 38.0879ZM9.64844 37.3408C8.75 37.3408 8.15918 36.6572 8.15918 35.4609C8.15918 34.2646 8.75 33.5811 9.64844 33.5811C10.5469 33.5811 11.1328 34.2646 11.1328 35.4609C11.1328 36.6572 10.5469 37.3408 9.64844 37.3408ZM12.8564 38H13.7061V34.8164C13.7061 34.1133 14.1943 33.5859 14.8682 33.5859C15.498 33.5859 15.9082 33.9863 15.9082 34.5967V38H16.7578V34.7725C16.7578 34.084 17.2314 33.5859 17.9053 33.5859C18.5742 33.5859 18.96 33.9961 18.96 34.6895V38H19.8096V34.4941C19.8096 33.4883 19.1602 32.834 18.1543 32.834C17.4414 32.834 16.8457 33.1953 16.5625 33.8008H16.543C16.3232 33.1855 15.8105 32.834 15.1172 32.834C14.4336 32.834 13.916 33.1953 13.6768 33.7324H13.6572V32.9219H12.8564V38ZM22.9297 33.5713C23.7305 33.5713 24.2627 34.1768 24.2822 35.0264H21.5234C21.5771 34.1816 22.1338 33.5713 22.9297 33.5713ZM24.2627 36.5449C24.1211 37.0234 23.6475 37.3506 23.0029 37.3506C22.0898 37.3506 21.5186 36.7109 21.5186 35.7393V35.6904H25.1611V35.3682C25.1611 33.8301 24.3164 32.834 22.9443 32.834C21.543 32.834 20.6445 33.9033 20.6445 35.4805C20.6445 37.0771 21.5283 38.0879 22.9834 38.0879C24.0918 38.0879 24.9512 37.4336 25.0977 36.5449H24.2627Z" fill="#313131"/>
</g>
<defs>
<clipPath id="clip0">
<rect width="26" height="40" fill="white"/>
</clipPath>
</defs>
</svg>
