<svg width="27" height="40" viewBox="0 0 27 40" fill="none" xmlns="http://www.w3.org/2000/svg">
<g clip-path="url(#clip0)">
<path d="M22 18V16C22 13.7909 20.2091 12 18 12H10C7.79086 12 6 13.7909 6 16V18" stroke="#BFBEBF" stroke-width="2" stroke-linecap="round" stroke-linejoin="round"/>
<circle cx="14" cy="4" r="4" stroke="#BFBEBF" stroke-width="2" stroke-linecap="round" stroke-linejoin="round"/>
<path d="M0.683594 30.9541V38H1.5625V35.4854H3.18848C4.51172 35.4854 5.4541 34.5527 5.4541 33.2148C5.4541 31.8818 4.52148 30.9541 3.19824 30.9541H0.683594ZM1.5625 31.7354H2.96875C3.97949 31.7354 4.55078 32.2822 4.55078 33.2148C4.55078 34.1523 3.97461 34.7041 2.96875 34.7041H1.5625V31.7354ZM6.33301 38H7.18262V34.8359C7.18262 34.1182 7.6123 33.6445 8.27148 33.6445C8.47656 33.6445 8.65723 33.6689 8.72559 33.6934V32.8682C8.65723 32.8584 8.53027 32.834 8.38379 32.834C7.78809 32.834 7.31934 33.1904 7.15332 33.752H7.13379V32.9219H6.33301V38ZM11.2793 38.0879C12.6807 38.0879 13.6279 37.0771 13.6279 35.4609C13.6279 33.8398 12.6807 32.834 11.2793 32.834C9.87305 32.834 8.92578 33.8398 8.92578 35.4609C8.92578 37.0771 9.87305 38.0879 11.2793 38.0879ZM11.2793 37.3408C10.3809 37.3408 9.79004 36.6572 9.79004 35.4609C9.79004 34.2646 10.3809 33.5811 11.2793 33.5811C12.1777 33.5811 12.7637 34.2646 12.7637 35.4609C12.7637 36.6572 12.1777 37.3408 11.2793 37.3408ZM14.7607 38H15.6104V33.6201H16.6455V32.9219H15.6055V32.3604C15.6055 31.8574 15.8252 31.6133 16.2842 31.6133C16.4258 31.6133 16.5674 31.6279 16.6699 31.6426V30.9541C16.5479 30.9346 16.3428 30.915 16.1523 30.915C15.2148 30.915 14.7607 31.3789 14.7607 32.3555V32.9219H14.0527V33.6201H14.7607V38ZM17.5684 38H18.418V32.9219H17.5684V38ZM17.9932 32.0186C18.291 32.0186 18.5254 31.7793 18.5254 31.4863C18.5254 31.1885 18.291 30.9541 17.9932 30.9541C17.7002 30.9541 17.4609 31.1885 17.4609 31.4863C17.4609 31.7793 17.7002 32.0186 17.9932 32.0186ZM19.6094 38H20.459V30.9541H19.6094V38ZM23.6426 33.5713C24.4434 33.5713 24.9756 34.1768 24.9951 35.0264H22.2363C22.29 34.1816 22.8467 33.5713 23.6426 33.5713ZM24.9756 36.5449C24.834 37.0234 24.3604 37.3506 23.7158 37.3506C22.8027 37.3506 22.2314 36.7109 22.2314 35.7393V35.6904H25.874V35.3682C25.874 33.8301 25.0293 32.834 23.6572 32.834C22.2559 32.834 21.3574 33.9033 21.3574 35.4805C21.3574 37.0771 22.2412 38.0879 23.6963 38.0879C24.8047 38.0879 25.6641 37.4336 25.8105 36.5449H24.9756Z" fill="#BFBEBF"/>
</g>
<defs>
<clipPath id="clip0">
<rect width="27" height="40" fill="white"/>
</clipPath>
</defs>
</svg>
